# xmcd
#
# Track frame offsets: 
#        150
#        13784
#        28651
#        42976
#        56838
#        68334
#        81781
#        94042
#        105377
#        116951
#        129687
#        140376
#        152995
#        165632
#        177795
#        189358
#        199749
#        212851
#        225173
#        235221
#        248258
#        262436
#        274520
#        287979
#        300174
#        311245
#        323791
#
# Disc length: 4472 seconds
#
# Revision: 0
# Processed by: cddbd v1.5.2PL0 Copyright (c) Steve Scherf et al.
# Submitted via: ExactAudioCopy v0.99pb5
#
DISCID=7811761b
DTITLE=Carter Sisters and Mother Maybelle  - The Complete Original Recor
DTITLE=dings 1949-1952 
DYEAR=1900
DGENRE=Country
TTITLE0=My Darling's Home at Last
TTITLE1=The Kneeling Drunkard's Plea
TTITLE2=Why Do You Weep, Dear Willow?
TTITLE3=(This Is) Someone's Last Day
TTITLE4=Walk a Little Closer
TTITLE5=A Picture a Ring and a Curl
TTITLE6=The Day of Wrath
TTITLE7=I've Got a Home up in Glory
TTITLE8=Blue Skies and Sunshine
TTITLE9=The Day They Laid Mary Away
TTITLE10=Don't Wait
TTITLE11=Down on My Knees
TTITLE12=Little Orphan Girl
TTITLE13=God Sent My Little Girl
TTITLE14=Willow, Will You Weep for Me
TTITLE15=Gotta Find Me Somebody to Love
TTITLE16=A Trinket of Shiny Gold
TTITLE17=I've Got My Share of Trouble
TTITLE18=Columbus, GA
TTITLE19=Foggy Mountain Top
TTITLE20=Fair and Tender Ladies
TTITLE21=Sun's Gonna to Shine in My Back Door
TTITLE22=I Will Never Marry
TTITLE23=Wildwood Flower
TTITLE24=He's Solid Gone
TTITLE25=You Are My Flower
TTITLE26=I Ain't Gonna Work Tomorrow
EXTD=
EXTT0=
EXTT1=
EXTT2=
EXTT3=
EXTT4=
EXTT5=
EXTT6=
EXTT7=
EXTT8=
EXTT9=
EXTT10=
EXTT11=
EXTT12=
EXTT13=
EXTT14=
EXTT15=
EXTT16=
EXTT17=
EXTT18=
EXTT19=
EXTT20=
EXTT21=
EXTT22=
EXTT23=
EXTT24=
EXTT25=
EXTT26=
PLAYORDER=
